<?xml version="1.0" encoding="utf-8"?>
<!-- Generator: Adobe Illustrator 21.1.0, SVG Export Plug-In . SVG Version: 6.00 Build 0)  -->
<svg version="1.1" id="Layer_1" xmlns="http://www.w3.org/2000/svg" xmlns:xlink="http://www.w3.org/1999/xlink" x="0px" y="0px"
	 viewBox="0 0 770.7 473.8" style="enable-background:new 0 0 770.7 473.8;" xml:space="preserve">
<style type="text/css">
	.st0{opacity:0.2;fill:url(#SVGID_1_);enable-background:new    ;}
</style>
<linearGradient id="SVGID_1_" gradientUnits="userSpaceOnUse" x1="10" y1="362.9" x2="780.7" y2="362.9" gradientTransform="matrix(1 0 0 1 0 -136)">
	<stop  offset="0" style="stop-color:#93CED6"/>
	<stop  offset="0.5" style="stop-color:#5CC2EF"/>
	<stop  offset="1" style="stop-color:#2D90FD"/>
</linearGradient>
<path class="st0" d="M755.9,76.5l24.8-43l-25-43.3l-0.1-0.2h-50.2l-18.7,32.4L680.5,33h-49.1l-9.3-16.1L606.8-9.8l-0.2-0.2h-50.2
	l-24.8,43h-49.1L457.8-9.8l-0.2-0.2h-50.2l-24.8,43h-49.1L308.8-9.8l-0.1-0.2h-50.2l-24.8,43h-49.1l-24.9-43h-50.2L84.6,33h-49
	L10.9-9.8L10-9.2L35,34h49.7l24.8,43h49.7l24.8,43h49.7l24.8,43h49.7l24.7,42.8l0.1,0.2h49.7l24.7,42.8l0.1,0.2h49.7l24.7,42.8
	l0.1,0.2h49.7l24.7,42.8l0.1,0.2H606l24.7,42.8l0.1,0.2h49.7l24.7,42.8l0.1,0.2H755l24.7,42.8l0.9-0.5l-24.7-42.8l24.8-43l-24.8-43
	l24.8-43l-24.8-43l24.8-43l-24.8-43l24.8-43L755.9,76.5z M705.9,334l-16.4-28.3l-8.2-14.2l24.5-42.5H755l24.5,42.5L755,334H705.9z
	 M631.5,291L621,272.8l-14-24.3l17.9-31l6.7-11.5h49.1l10.5,18.2l14,24.3l-17.9,31l-6.7,11.5H631.5z M557,248l-24.5-42.5L557,163h49
	l16.4,28.3l8.2,14.2L606,248H557z M482.5,205L458,162.5l12.3-21.3l12.3-21.3h49.1l24.5,42.5L531.6,205H482.5z M408,162l-10.5-18.3
	l-14-24.2l17.9-31L408,77h49.1l24.5,42.5l-12.3,21.3L457.1,162H408z M333.5,119l-16.4-28.3L309,76.5L333.5,34h49.1L399,62.3
	l8.2,14.2L382.6,119H333.5z M259,76l-24.5-42.5L259-9h49.1l12.3,21.3l12.3,21.3l-17.9,31L308.1,76H259z M408-9h49.1l24.5,42.5
	l-12.3,21.3L457.1,76H408l-10.5-18.2l-14-24.3l16.4-28.3L408-9z M618.3,12.3l12.3,21.3L606,76h-49l-24.5-42.5L557-9h49L618.3,12.3z
	 M705.9,248l-16.4-28.3l-8.2-14.2l24.5-42.5H755l24.5,42.5L755,248H705.9z M631.5,205L621,186.8l-14-24.3l17.9-31l6.7-11.6h49.1
	l10.5,18.3l14,24.2l-17.9,31l-6.7,11.5h-49.1V205z M557,162l-24.5-42.5L557,77h49l16.4,28.3l8.2,14.2L606,162H557z M705.9,162
	l-16.4-28.3l-8.2-14.2L705.9,77H755l24.5,42.5L755,162H705.9z M779.6,33.5L755,76h-49.1l-16.4-28.3l-8.2-14.2L705.9-9H755
	L779.6,33.5z M691.1,52.2l14,24.3l-17.9,31l-6.7,11.5h-49.1l-10.5-18.2l-14-24.3l17.9-31l6.7-11.5h49.1L691.1,52.2z M556.1,76.5
	L531.6,119h-49.1L458,76.5l12.3-21.3L482.5,34h49.1L556.1,76.5z M85.5,33.5L110-9h49.1l24.5,42.5L159.1,76H110L85.5,33.5z M160,76.5
	L184.5,34h49.1l24.5,42.5L233.6,119h-49.1L160,76.5z M234.5,119.5L259,77h49.1l10.5,18.2l14,24.3l-17.9,31l-6.7,11.6h-49
	L234.5,119.5z M309,162.5l24.5-42.5h49.1l16.4,28.3l8.2,14.2L382.6,205h-49.1L309,162.5z M383.4,205.5l17.9-31L408,163h49.1
	l24.5,42.5l-12.3,21.3L457.1,248H408L383.4,205.5z M457.9,248.5l12.3-21.3l12.3-21.3h49.1l24.5,42.5L531.6,291h-49.1L457.9,248.5z
	 M532.4,291.5L557,249h49l16.4,28.3l8.2,14.2L606,334h-49L532.4,291.5z M606.9,334.5l17.9-31l6.7-11.5h49.1l10.5,18.2l14,24.3
	l-17.9,31l-6.7,11.5h-49.1L606.9,334.5z M681.4,377.6l24.5-42.5H755l24.5,42.5L755,420.1h-49.1L681.4,377.6z"/>
</svg>
