<?xml version="1.0" encoding="utf-8"?>
<!-- Generator: Adobe Illustrator 22.0.1, SVG Export Plug-In . SVG Version: 6.00 Build 0)  -->
<svg version="1.1" id="Layer_1" xmlns="http://www.w3.org/2000/svg" xmlns:xlink="http://www.w3.org/1999/xlink" x="0px" y="0px"
	 viewBox="0 0 197.9 72.3" style="enable-background:new 0 0 197.9 72.3;" xml:space="preserve">
<style type="text/css">
	.st0{fill:url(#SVGID_1_);}
	.st1{opacity:0.6;fill:#FFFFFF;enable-background:new    ;}
	.st2{opacity:0.8;fill:url(#SVGID_2_);enable-background:new    ;}
	.st3{opacity:0.1;fill:#FFFFFF;enable-background:new    ;}
	.st4{fill:#FFFFFF;}
	.st5{fill:url(#SVGID_3_);}
	.st6{fill:url(#SVGID_4_);}
</style>
<g>
	
		<linearGradient id="SVGID_1_" gradientUnits="userSpaceOnUse" x1="7.196" y1="227.2811" x2="55.4811" y2="178.9961" gradientTransform="matrix(1 0 0 1 0 -167)">
		<stop  offset="0" style="stop-color:#2AB4FF"/>
		<stop  offset="1" style="stop-color:#7FC6CE"/>
	</linearGradient>
	<path class="st0" d="M62.6,50.4V21.9c0-2.4-1.3-4.6-3.3-5.8L34.7,1.9c-2.1-1.2-4.6-1.2-6.7,0L3.3,16.1c-2,1.2-3.3,3.5-3.3,5.8v28.4
		c0,2.4,1.3,4.6,3.3,5.8L28,70.4c2.1,1.2,4.6,1.2,6.7,0l24.6-14.2C61.4,55,62.6,52.8,62.6,50.4z"/>
	<g>
		<path class="st1" d="M49.1,27V14.2c0-2.4-1.3-4.6-3.3-5.8L34.7,1.9c-2.1-1.2-4.6-1.2-6.7,0L16.8,8.4c-2.1,1.2-3.3,3.4-3.3,5.8V27
			c0,2.4,1.3,4.6,3.3,5.8L28,39.2c2.1,1.2,4.6,1.2,6.7,0l11.1-6.4C47.9,31.6,49.1,29.4,49.1,27z"/>
		
			<linearGradient id="SVGID_2_" gradientUnits="userSpaceOnUse" x1="31.35" y1="238.1" x2="31.35" y2="199" gradientTransform="matrix(1 0 0 1 0 -167)">
			<stop  offset="0" style="stop-color:#2A85FF"/>
			<stop  offset="1" style="stop-color:#FFFFFF"/>
		</linearGradient>
		<path class="st2" d="M49.1,58V45.1c0-2.4-1.3-4.6-3.3-5.8l-11.1-6.4c-2.1-1.2-4.6-1.2-6.7,0l-11.1,6.4c-2.1,1.2-3.3,3.4-3.3,5.8
			V58c0,2.4,1.3,4.6,3.3,5.8L28,70.2c2.1,1.2,4.6,1.2,6.7,0l11.1-6.4C47.9,62.6,49.1,60.4,49.1,58z"/>
		<path class="st3" d="M62.6,34.8V22c0-2.4-1.3-4.6-3.3-5.8L48.2,9.7c-2.1-1.2-4.6-1.2-6.7,0l-11.1,6.4C28.3,17.4,27,19.6,27,22
			v12.8c0,2.4,1.3,4.6,3.3,5.8L41.5,47c2.1,1.2,4.6,1.2,6.7,0l11.1-6.4C61.4,39.4,62.6,37.2,62.6,34.8z"/>
		<path class="st1" d="M62.6,50.3V37.4c0-2.4-1.3-4.6-3.3-5.8l-11.1-6.4c-2.1-1.2-4.6-1.2-6.7,0l-11.1,6.4C28.3,32.8,27,35,27,37.4
			v12.8c0,2.4,1.3,4.6,3.3,5.8l11.1,6.4c2.1,1.2,4.6,1.2,6.7,0L59.2,56C61.4,54.9,62.6,52.7,62.6,50.3z"/>
		<path class="st3" d="M35.7,34.8V22c0-2.4-1.3-4.6-3.3-5.8L21.2,9.7c-2.1-1.2-4.6-1.2-6.7,0L3.3,16.2C1.3,17.4,0,19.6,0,22v12.8
			c0,2.4,1.3,4.6,3.3,5.8L14.5,47c2.1,1.2,4.6,1.2,6.7,0l11.1-6.4C34.4,39.4,35.7,37.2,35.7,34.8z"/>
		<path class="st1" d="M35.7,50.3V37.4c0-2.4-1.3-4.6-3.3-5.8l-11.1-6.4c-2.1-1.2-4.6-1.2-6.7,0L3.3,31.6C1.3,32.8,0,35,0,37.4v12.8
			c0,2.4,1.3,4.6,3.3,5.8l11.1,6.4c2.1,1.2,4.6,1.2,6.7,0L32.2,56C34.4,54.9,35.7,52.7,35.7,50.3z"/>
	</g>
</g>
<g>
	<g>
		<polygon class="st4" points="94.7,33.9 99.5,33.9 99.5,33.9 99.5,24.4 94.7,24.4 		"/>
		<polygon class="st4" points="94.7,47.5 99.5,47.5 99.5,38.1 99.5,38 94.7,38 		"/>
		<rect x="110.1" y="38" class="st4" width="4.7" height="9.5"/>
		<rect x="110.1" y="24.4" class="st4" width="4.7" height="9.5"/>
		<rect x="130.7" y="24.4" class="st4" width="4.8" height="23.1"/>
		<polygon class="st4" points="157.5,38.5 152.7,24.4 147.6,24.4 156.1,47.5 158.7,47.5 167.6,24.4 162.6,24.4 		"/>
		<polygon class="st4" points="184.5,38 184.5,33.9 184.5,33.9 184.5,28.6 197.9,28.6 197.9,24.4 184.5,24.4 179.7,24.4 179.7,28.6 
			179.7,33.9 179.7,38 179.7,43.3 179.7,47.5 179.7,47.5 179.7,47.5 184.5,47.5 184.5,47.5 184.5,47.5 197.9,47.5 197.9,43.3 
			184.5,43.3 184.5,38.1 		"/>
	</g>
	<g>
		<linearGradient id="SVGID_3_" gradientUnits="userSpaceOnUse" x1="90.5312" y1="35.95" x2="114.8084" y2="35.95">
			<stop  offset="0" style="stop-color:#2AB4FF"/>
			<stop  offset="1" style="stop-color:#7FC6CE"/>
		</linearGradient>
		<rect x="94.7" y="33.9" class="st5" width="20.1" height="4"/>
		<linearGradient id="SVGID_4_" gradientUnits="userSpaceOnUse" x1="176.4251" y1="35.95" x2="195.7654" y2="35.95">
			<stop  offset="0" style="stop-color:#2AB4FF"/>
			<stop  offset="1" style="stop-color:#7FC6CE"/>
		</linearGradient>
		<polygon class="st6" points="181.9,33.9 179.7,33.9 179.7,38 181.9,38 195.8,38 195.8,33.9 		"/>
	</g>
</g>
</svg>
