<svg width="51" height="44" viewBox="0 0 51 44" fill="none" xmlns="http://www.w3.org/2000/svg">
<path d="M50 22L37.75 43H13.25L1 22L13.25 1H37.75L50 22Z" stroke="#6ACBE4"/>
<path d="M23.625 26.875C23.625 25.6445 22.6055 24.625 21.375 24.625C20.1094 24.625 19.125 25.6445 19.125 26.875C19.125 28.1406 20.1094 29.125 21.375 29.125C22.6055 29.125 23.625 28.1406 23.625 26.875ZM29.7773 28.5625C29.4961 23.1133 25.1367 18.7539 19.6875 18.4727C19.3711 18.4375 19.125 18.7188 19.125 19.0352V20.7227C19.125 21.0039 19.3359 21.25 19.6172 21.2852C23.5547 21.5312 26.7188 24.6953 26.9648 28.6328C27 28.9141 27.2461 29.125 27.5273 29.125H29.2148C29.5312 29.125 29.8125 28.8789 29.7773 28.5625ZM34.8398 28.5625C34.5586 20.3359 27.9492 13.6914 19.6875 13.4102C19.3711 13.375 19.125 13.6211 19.125 13.9727V15.6602C19.125 15.9414 19.3359 16.1875 19.6523 16.2227C26.3672 16.4688 31.7812 21.8828 32.0273 28.5977C32.0625 28.9141 32.3086 29.1602 32.5898 29.1602H34.2773C34.6289 29.125 34.875 28.8789 34.8398 28.5625Z" fill="#6ACBE4"/>
</svg>
