<?xml version="1.0" encoding="utf-8"?>
<!-- Generator: Adobe Illustrator 21.1.0, SVG Export Plug-In . SVG Version: 6.00 Build 0)  -->
<svg version="1.1" id="Layer_1" xmlns="http://www.w3.org/2000/svg" xmlns:xlink="http://www.w3.org/1999/xlink" x="0px" y="0px"
	 viewBox="0 0 34 32" style="enable-background:new 0 0 34 32;" xml:space="preserve">
<style type="text/css">
	.st0{fill:url(#SVGID_1_);}
	.st1{fill:url(#SVGID_2_);}
	.st2{fill:url(#SVGID_3_);}
</style>
<g>
	<linearGradient id="SVGID_1_" gradientUnits="userSpaceOnUse" x1="16.3986" y1="14.0508" x2="19.292" y2="14.0508">
		<stop  offset="0" style="stop-color:#93CED6"/>
		<stop  offset="0.5" style="stop-color:#5CC2EF"/>
		<stop  offset="1" style="stop-color:#2D90FD"/>
	</linearGradient>
	<path class="st0" d="M16.9,12.8L16.4,15c0.6,0.2,2.5,0.8,2.9-0.5C19.6,13.2,17.6,13,16.9,12.8z"/>
	<linearGradient id="SVGID_2_" gradientUnits="userSpaceOnUse" x1="15.5146" y1="17.5172" x2="18.9514" y2="17.5172">
		<stop  offset="0" style="stop-color:#93CED6"/>
		<stop  offset="0.5" style="stop-color:#5CC2EF"/>
		<stop  offset="1" style="stop-color:#2D90FD"/>
	</linearGradient>
	<path class="st1" d="M16.1,16.1l-0.6,2.4c0.7,0.2,3.1,0.9,3.4-0.4h0C19.3,16.7,16.9,16.3,16.1,16.1z"/>
	<linearGradient id="SVGID_3_" gradientUnits="userSpaceOnUse" x1="6.9316" y1="16" x2="27.0684" y2="16">
		<stop  offset="0" style="stop-color:#93CED6"/>
		<stop  offset="0.5" style="stop-color:#5CC2EF"/>
		<stop  offset="1" style="stop-color:#2D90FD"/>
	</linearGradient>
	<path class="st2" d="M19.4,6.2C14,4.9,8.6,8.2,7.2,13.6C5.9,19,9.2,24.4,14.6,25.8c5.4,1.3,10.9-1.9,12.2-7.3h0
		C28.1,13,24.8,7.6,19.4,6.2z M21.4,14.6L21.4,14.6c-0.1,1-0.7,1.5-1.4,1.6c1,0.5,1.5,1.3,1,2.7c-0.6,1.7-2,1.8-3.9,1.5l-0.5,1.8
		l-1.1-0.3l0.5-1.8c-0.3-0.1-0.6-0.1-0.9-0.2l-0.5,1.8l-1.1-0.3l0.5-1.8c-0.3-0.1-0.5-0.1-0.8-0.2L11.8,19l0.5-1.3
		c0,0,0.8,0.2,0.8,0.2c0.3,0.1,0.5-0.1,0.5-0.3l0.7-2.9l0.1,0c0,0-0.1,0-0.1,0l0.5-2.1c0-0.2-0.1-0.5-0.5-0.6c0,0-0.8-0.2-0.8-0.2
		l0.3-1.2l1.5,0.4l0,0c0.2,0.1,0.5,0.1,0.7,0.2l0.5-1.8l1.1,0.3l-0.4,1.8c0.3,0.1,0.6,0.1,0.9,0.2l0.4-1.8l1.1,0.3L19.2,12
		C20.6,12.5,21.6,13.2,21.4,14.6z"/>
</g>
</svg>
