<svg width="30" height="30" viewBox="0 0 30 30" fill="none" xmlns="http://www.w3.org/2000/svg">
<path d="M20.625 15C20.625 15.6562 21.0938 16.125 21.75 16.125C22.3594 16.125 22.875 15.6562 22.875 15C22.875 14.3906 22.3594 13.875 21.75 13.875C21.0938 13.875 20.625 14.3906 20.625 15ZM18.75 16.125C19.3594 16.125 19.875 15.6562 19.875 15C19.875 14.3906 19.3594 13.875 18.75 13.875C18.0938 13.875 17.625 14.3906 17.625 15C17.625 15.6562 18.0938 16.125 18.75 16.125ZM27 10.125V6.375C27 5.15625 25.9688 4.125 24.75 4.125H5.25C3.98438 4.125 3 5.15625 3 6.375V10.125C3 10.7344 3.1875 11.25 3.5625 11.625C3.1875 12.0469 3 12.5625 3 13.125V16.875C3 17.4844 3.1875 18 3.5625 18.375C3.1875 18.7969 3 19.3125 3 19.875V23.625C3 24.8906 3.98438 25.875 5.25 25.875H24.75C25.9688 25.875 27 24.8906 27 23.625V19.875C27 19.3125 26.7656 18.7969 26.3906 18.375C26.7656 18 27 17.4844 27 16.875V13.125C27 12.5625 26.7656 12.0469 26.3906 11.625C26.7656 11.25 27 10.7344 27 10.125ZM4.5 10.125V6.375C4.5 6 4.82812 5.625 5.25 5.625H24.75C25.125 5.625 25.5 6 25.5 6.375V10.125C25.5 10.5469 25.125 10.875 24.75 10.875H5.25C4.82812 10.875 4.5 10.5469 4.5 10.125ZM24.75 12.375C25.125 12.375 25.5 12.75 25.5 13.125V16.875C25.5 17.2969 25.125 17.625 24.75 17.625H5.25C4.82812 17.625 4.5 17.2969 4.5 16.875V13.125C4.5 12.75 4.82812 12.375 5.25 12.375H24.75ZM25.5 19.875V23.625C25.5 24.0469 25.125 24.375 24.75 24.375H5.25C4.82812 24.375 4.5 24.0469 4.5 23.625V19.875C4.5 19.5 4.82812 19.125 5.25 19.125H24.75C25.125 19.125 25.5 19.5 25.5 19.875ZM21.75 9.375C22.3594 9.375 22.875 8.90625 22.875 8.25C22.875 7.64062 22.3594 7.125 21.75 7.125C21.0938 7.125 20.625 7.64062 20.625 8.25C20.625 8.90625 21.0938 9.375 21.75 9.375ZM18.75 9.375C19.3594 9.375 19.875 8.90625 19.875 8.25C19.875 7.64062 19.3594 7.125 18.75 7.125C18.0938 7.125 17.625 7.64062 17.625 8.25C17.625 8.90625 18.0938 9.375 18.75 9.375ZM21.75 20.625C21.0938 20.625 20.625 21.1406 20.625 21.75C20.625 22.4062 21.0938 22.875 21.75 22.875C22.3594 22.875 22.875 22.4062 22.875 21.75C22.875 21.1406 22.3594 20.625 21.75 20.625ZM18.75 20.625C18.0938 20.625 17.625 21.1406 17.625 21.75C17.625 22.4062 18.0938 22.875 18.75 22.875C19.3594 22.875 19.875 22.4062 19.875 21.75C19.875 21.1406 19.3594 20.625 18.75 20.625Z" fill="#5DADEA"/>
</svg>