<svg width="30" height="30" viewBox="0 0 30 30" fill="none" xmlns="http://www.w3.org/2000/svg">
<path d="M27.5 3H3.5C2.65625 3 2 3.70312 2 4.5V25.5C2 26.3438 2.65625 27 3.5 27H27.5C28.2969 27 29 26.3438 29 25.5V4.5C29 3.70312 28.2969 3 27.5 3ZM27.5 25.5H3.5V15.75H9.78125L11.7969 19.875C11.9375 20.1094 12.1719 20.25 12.4531 20.25C12.5 20.25 12.5 20.25 12.5469 20.25C12.8281 20.25 13.1094 20.0625 13.2031 19.7812L15.5 12.8906L16.25 15.2812C16.3438 15.5625 16.6719 15.75 17 15.75H24.125C24.3125 15.75 24.5 15.6094 24.5 15.375V14.625C24.5 14.4375 24.3125 14.25 24.125 14.25H17.5156L16.2031 10.2656C15.9688 9.65625 14.9844 9.65625 14.75 10.2656L12.3594 17.5781L10.9062 14.6719C10.7656 14.4375 10.4844 14.2969 10.25 14.2969H3.5V4.5H27.5V25.5Z" fill="#5DADEA"/>
</svg>