<svg width="30" height="30" viewBox="0 0 30 30" fill="none" xmlns="http://www.w3.org/2000/svg">
<path d="M30 11.125C30 10.5156 29.4844 10 28.875 10H28.5V9.25C28.5 8.03125 27.4688 7 26.25 7H20.1562C20.1094 7.04688 20.1094 7.04688 20.1094 7.09375L19.9219 7.79688C20.625 7.84375 21.375 8.07812 21.9844 8.5H26.25C26.625 8.5 27 8.875 27 9.25V11.5H28.5V17.5H27V19.75C27 20.1719 26.625 20.5 26.25 20.5H19.5938L18.75 22H26.25C27.4688 22 28.5 21.0156 28.5 19.75V19H28.875C29.4844 19 30 18.5312 30 17.875V11.125ZM1.5 19.75V9.25C1.5 8.875 1.82812 8.5 2.25 8.5H6.70312L6.84375 7H2.25C0.984375 7 0 8.03125 0 9.25V19.75C0 21.0156 0.984375 22 2.25 22H9.23438L9.60938 20.5H2.25C1.82812 20.5 1.5 20.1719 1.5 19.75ZM21.2812 12.9531C22.0312 11.6406 21.0469 10 19.5469 10H17.0156L17.9531 6.48438C18.2812 5.26562 17.3438 4 16.0312 4H11.2031C10.1719 4 9.32812 4.79688 9.23438 5.82812L8.4375 13.8906C8.29688 15.0156 9.23438 16 10.4062 16H13.0312L11.4375 22.5625C11.1094 23.8281 12.0469 25 13.3125 25C14.0156 25 14.7188 24.6719 15.0469 24.0156L21.2812 12.9531ZM19.5469 11.5C19.9219 11.5 20.1562 11.9219 19.9688 12.2031L13.7344 23.2656C13.6406 23.4531 13.4531 23.5 13.3125 23.5C13.0312 23.5 12.7969 23.2656 12.8906 22.9375V22.8906L14.9531 14.5469H10.4062C10.125 14.5469 9.89062 14.2656 9.9375 14.0312L10.7344 5.96875C10.7344 5.73438 10.9688 5.5 11.2031 5.5H16.0312C16.3594 5.5 16.5938 5.82812 16.5 6.10938L15.0938 11.5H19.5469Z" fill="#5DADEA"/>
</svg>